<?xml version="1.0" encoding="utf-8"?>
<!-- Generator: Adobe Illustrator 17.0.0, SVG Export Plug-In . SVG Version: 6.00 Build 0)  -->
<!DOCTYPE svg PUBLIC "-//W3C//DTD SVG 1.1//EN" "http://www.w3.org/Graphics/SVG/1.1/DTD/svg11.dtd">
<svg version="1.1" id="Слой_1" xmlns="http://www.w3.org/2000/svg" xmlns:xlink="http://www.w3.org/1999/xlink" x="0px" y="0px"
	 width="1025.949px" height="635.399px" viewBox="0 0 1025.949 635.399" enable-background="new 0 0 1025.949 635.399"
	 xml:space="preserve">
<g>
	<path fill="#E2001A" d="M818.671,511.596H207.278c-9.477,0-17.159-7.804-17.159-17.432V209.126l85.322-85.322h543.23
		c9.477,0,17.16,7.804,17.16,17.432v352.929C835.83,503.791,828.148,511.596,818.671,511.596z"/>
	<g>
		<path fill-rule="evenodd" clip-rule="evenodd" fill="#FFFFFF" d="M482.867,218.64c-15.523-0.234-28.821-1.172-35.265,3.515
			c-5.331,3.866-4.393,15.992-4.569,21.851l0.059,4.569h33.566l-5.741,30.169l-27.122-0.059l-1.054,117.454l-41.181-0.059
			l3.573-117.864l-20.678,0.41l5.155-29.7h17.398l0.117-4.511c0.234-12.653-0.352-29.525,12.067-41.358
			c11.54-10.544,26.302-11.54,33.214-12.243c11.481-1.113,35.85,0.059,35.85,0.059S483.043,218.64,482.867,218.64L482.867,218.64z
			 M756.548,318.285v-10.837c-0.469-26.713-4.745-54.656-14.82-80.197c-6.561-16.461-10.954-30.169-19.273-42.002l-26.771-0.059
			c28.469,52.078,25.833,102.516,25.247,131.748c-0.527,28.001-7.498,77.561-38.779,133.271h29.934
			c12.594-18.98,22.143-38.253,29.114-57.233C750.163,368.664,756.079,344.119,756.548,318.285L756.548,318.285z M598.795,363.041
			l-5.858,30.11c0,0-24.837,5.975-55.24,5.038c-28.938-0.879-45.34-12.771-52.545-20.269c-9.138-9.549-19.448-26.771-17.515-55.066
			c1.816-25.072,12.067-45.107,30.637-59.459c18.745-14.469,37.783-16.051,50.554-15.992c29.465,0.117,45.926,13.181,54.537,24.194
			c5.975,7.44,15.582,24.252,13.59,52.605l-0.293,3.339L508.759,327.6c0,0-3.515,13.122,3.339,28.001
			c5.799,12.771,21.44,16.344,35.733,16.344C578.644,371.945,598.795,363.041,598.795,363.041L598.795,363.041z M522.466,280.559
			c-10.661,11.482-11.54,28.353-11.54,28.353h4.393l57.876,0.234h3.632l0.41-3.632c0.879-7.85-0.996-16.461-4.862-22.554
			c-5.741-8.201-13.883-12.36-24.427-12.36C538.458,270.542,528.852,273.823,522.466,280.559L522.466,280.559z M288.678,396.08
			c0-65.669,5.331-132.509,8.845-198.002c-13.766,0-27.474-0.059-41.24-0.059c0.41,65.61-4.218,132.451-7.381,198.061
			C262.552,396.08,275.029,396.08,288.678,396.08L288.678,396.08z M364.42,396.139c-0.996-48.798,1.699-97.654,3.163-146.451
			c-14.469,0-26.068-0.059-40.537-0.059c-0.879,48.798-1.64,97.829-5.331,146.451C337.005,396.08,349.248,396.139,364.42,396.139
			L364.42,396.139z M369.517,227.603c0.527-11.189,0.703-18.394,0.82-29.525c-14.938,0-26.946-0.059-41.884-0.059
			c-0.527,11.13-0.527,18.336-0.879,29.525C342.57,227.544,354.579,227.603,369.517,227.603L369.517,227.603z M681.45,396.783
			l0.996-38.487l-46.512-0.059l-0.996,38.546H681.45z M686.605,289.346l0.937-38.956l-46.043-0.059l-0.996,38.956L686.605,289.346z"
			/>
	</g>
</g>
</svg>
